<svg width="22" height="21" viewBox="0 0 22 21" fill="none" xmlns="http://www.w3.org/2000/svg">
<path d="M10.2827 2.45258C10.5131 1.98564 10.6284 1.75218 10.7848 1.67758C10.9209 1.61268 11.0791 1.61268 11.2152 1.67758C11.3717 1.75218 11.4869 1.98564 11.7174 2.45258L13.9041 6.88255C13.9721 7.0204 14.0061 7.08933 14.0558 7.14284C14.0999 7.19023 14.1527 7.22862 14.2113 7.25589C14.2776 7.28669 14.3536 7.29781 14.5057 7.32004L19.397 8.03497C19.9121 8.11026 20.1696 8.1479 20.2888 8.2737C20.3925 8.38316 20.4412 8.53356 20.4215 8.68304C20.3988 8.85485 20.2124 9.03645 19.8395 9.39965L16.3014 12.8457C16.1912 12.9531 16.136 13.0068 16.1004 13.0707C16.0689 13.1273 16.0487 13.1895 16.0409 13.2538C16.0321 13.3264 16.0451 13.4023 16.0711 13.554L16.906 18.4214C16.994 18.9348 17.038 19.1914 16.9553 19.3438C16.8833 19.4763 16.7554 19.5693 16.6071 19.5967C16.4366 19.6283 16.2061 19.5071 15.7451 19.2647L11.3724 16.9651C11.2361 16.8935 11.168 16.8576 11.0962 16.8436C11.0327 16.8311 10.9673 16.8311 10.9038 16.8436C10.832 16.8576 10.7639 16.8935 10.6277 16.9651L6.25492 19.2647C5.79392 19.5071 5.56341 19.6283 5.39297 19.5967C5.24468 19.5693 5.11672 19.4763 5.04474 19.3438C4.962 19.1914 5.00603 18.9348 5.09407 18.4214L5.92889 13.554C5.95491 13.4023 5.96793 13.3264 5.95912 13.2538C5.95132 13.1895 5.93111 13.1273 5.89961 13.0707C5.86402 13.0068 5.80888 12.9531 5.69859 12.8457L2.16056 9.39965C1.78766 9.03645 1.60121 8.85485 1.57853 8.68304C1.55879 8.53356 1.60755 8.38316 1.71125 8.2737C1.83044 8.1479 2.08797 8.11026 2.60304 8.03497L7.49431 7.32004C7.64642 7.29781 7.72248 7.28669 7.78872 7.25589C7.84736 7.22862 7.90016 7.19023 7.94419 7.14284C7.99391 7.08933 8.02793 7.0204 8.09597 6.88255L10.2827 2.45258Z" stroke="#F9B774" stroke-width="2" stroke-linecap="round" stroke-linejoin="round"/>
</svg>
