<svg width="23" height="20" viewBox="0 0 23 20" fill="none" xmlns="http://www.w3.org/2000/svg">
<path d="M8.5 13.5H7C5.60444 13.5 4.90665 13.5 4.33886 13.6722C3.06045 14.06 2.06004 15.0605 1.67224 16.3389C1.5 16.9067 1.5 17.6044 1.5 19M14 5.5C14 7.98528 11.9853 10 9.5 10C7.01472 10 5 7.98528 5 5.5C5 3.01472 7.01472 1 9.5 1C11.9853 1 14 3.01472 14 5.5ZM10.5 19L13.6014 18.1139C13.7499 18.0715 13.8241 18.0502 13.8934 18.0184C13.9549 17.9902 14.0134 17.9558 14.0679 17.9158C14.1293 17.8707 14.1839 17.8161 14.2932 17.7068L20.75 11.25C21.4404 10.5597 21.4404 9.44034 20.75 8.74997C20.0597 8.05963 18.9404 8.05964 18.25 8.74999L11.7932 15.2068C11.6839 15.3161 11.6293 15.3707 11.5842 15.4321C11.5442 15.4866 11.5098 15.5451 11.4816 15.6066C11.4497 15.6759 11.4285 15.7501 11.3861 15.8987L10.5 19Z" stroke="#495057" stroke-width="2" stroke-linecap="round" stroke-linejoin="round"/>
</svg>
