<svg  viewBox="0 0 19 22" fill="none" xmlns="http://www.w3.org/2000/svg">
<path d="M10.5 6.50036L7.5 9.50036L11.5 11.5004L8.5 14.5004M17.5 11.0004C17.5 15.9088 12.146 19.4788 10.198 20.6152C9.9766 20.7444 9.8659 20.809 9.70968 20.8425C9.58844 20.8685 9.41156 20.8685 9.29032 20.8425C9.1341 20.809 9.0234 20.7444 8.80201 20.6152C6.85396 19.4788 1.5 15.9088 1.5 11.0004V6.21796C1.5 5.41845 1.5 5.01869 1.63076 4.67506C1.74627 4.3715 1.93398 4.10064 2.17766 3.88589C2.4535 3.6428 2.8278 3.50243 3.5764 3.22171L8.9382 1.21103C9.1461 1.13307 9.25005 1.09409 9.35698 1.07864C9.45184 1.06493 9.54816 1.06493 9.64302 1.07864C9.74995 1.09409 9.8539 1.13307 10.0618 1.21103L15.4236 3.22171C16.1722 3.50243 16.5465 3.6428 16.8223 3.88589C17.066 4.10064 17.2537 4.3715 17.3692 4.67506C17.5 5.01869 17.5 5.41845 17.5 6.21796V11.0004Z" stroke="currentColor" stroke-width="2" stroke-linecap="round" stroke-linejoin="round"/>
</svg>
