<svg viewBox="0 0 25 24" fill="none" xmlns="http://www.w3.org/2000/svg">
<path d="M9.5 15.5H8C6.60444 15.5 5.90665 15.5 5.33886 15.6722C4.06045 16.06 3.06004 17.0605 2.67224 18.3389C2.5 18.9067 2.5 19.6044 2.5 21M15 7.5C15 9.98528 12.9853 12 10.5 12C8.01472 12 6 9.98528 6 7.5C6 5.01472 8.01472 3 10.5 3C12.9853 3 15 5.01472 15 7.5ZM11.5 21L14.6014 20.1139C14.7499 20.0715 14.8241 20.0502 14.8934 20.0184C14.9549 19.9902 15.0134 19.9558 15.0679 19.9158C15.1293 19.8707 15.1839 19.8161 15.2932 19.7068L21.75 13.25C22.4404 12.5597 22.4404 11.4403 21.75 10.75C21.0597 10.0596 19.9404 10.0596 19.25 10.75L12.7932 17.2068C12.6839 17.3161 12.6293 17.3707 12.5842 17.4321C12.5442 17.4866 12.5098 17.5451 12.4816 17.6066C12.4497 17.6759 12.4285 17.7501 12.3861 17.8987L11.5 21Z" stroke="currentColor" stroke-width="2" stroke-linecap="round" stroke-linejoin="round"/>
</svg>
