<?xml version="1.0" encoding="UTF-8"?>
<svg id="Layer_2" data-name="Layer 2" xmlns="http://www.w3.org/2000/svg" viewBox="0 0 72 88">
  <defs>
    <style>
      .cls-1 {
        fill: #3f72af;
      }
    </style>
  </defs>
  <g id="Layer_1" data-name="Layer 1">
    <path class="cls-1" d="M36,0C16.15,0,0,16.15,0,36c0,4.96,1.95,10.59,4.88,16.26l14.05-7.53c-1.83-3.46-2.93-6.5-2.93-8.73,0-11.03,8.98-20,20-20s20,8.97,20,20c0,.09,0,.17-.01,.26h16c.01-.09,.01-.17,.01-.26C72,16.15,55.85,0,36,0Zm0,68.22c-2.76-3.13-5.6-6.58-8.24-10.07l-14.32,7.67c6.89,9.4,14.34,17.22,16.85,19.78,1.51,1.54,3.57,2.4,5.71,2.4s4.21-.86,5.71-2.4c3.65-3.72,17.82-18.63,25.41-33.34h-18.65c-3.64,5.38-8.16,11.06-12.47,15.96Z"/>
  </g>
</svg>