<svg  viewBox="0 0 20 19" fill="none" xmlns="http://www.w3.org/2000/svg">
<path d="M9.28265 1.45356C9.51314 0.986621 9.62838 0.753152 9.78483 0.678558C9.92095 0.613658 10.0791 0.613658 10.2152 0.678558C10.3717 0.753152 10.4869 0.986621 10.7174 1.45356L12.9041 5.88353C12.9721 6.02138 13.0061 6.0903 13.0558 6.14382C13.0999 6.1912 13.1527 6.22959 13.2113 6.25687C13.2776 6.28767 13.3536 6.29878 13.5057 6.32102L18.397 7.03595C18.9121 7.11124 19.1696 7.14888 19.2888 7.27468C19.3925 7.38414 19.4412 7.53454 19.4215 7.68402C19.3988 7.85582 19.2124 8.03742 18.8395 8.40063L15.3014 11.8467C15.1912 11.9541 15.136 12.0078 15.1004 12.0717C15.0689 12.1283 15.0487 12.1905 15.0409 12.2548C15.0321 12.3274 15.0451 12.4032 15.0711 12.555L15.906 17.4224C15.994 17.9357 16.038 18.1924 15.9553 18.3447C15.8833 18.4773 15.7554 18.5702 15.6071 18.5977C15.4366 18.6293 15.2061 18.5081 14.7451 18.2657L10.3724 15.9661C10.2361 15.8944 10.168 15.8586 10.0962 15.8445C10.0327 15.8321 9.96734 15.8321 9.90379 15.8445C9.83202 15.8586 9.7639 15.8944 9.62766 15.9661L5.25492 18.2657C4.79392 18.5081 4.56341 18.6293 4.39297 18.5977C4.24468 18.5702 4.11672 18.4773 4.04474 18.3447C3.962 18.1924 4.00603 17.9357 4.09407 17.4224L4.92889 12.555C4.95491 12.4032 4.96793 12.3274 4.95912 12.2548C4.95132 12.1905 4.93111 12.1283 4.89961 12.0717C4.86402 12.0078 4.80888 11.9541 4.69859 11.8467L1.16056 8.40062C0.787663 8.03742 0.601215 7.85582 0.578526 7.68402C0.558786 7.53454 0.607554 7.38414 0.711251 7.27468C0.830435 7.14888 1.08797 7.11124 1.60304 7.03595L6.49431 6.32102C6.64642 6.29878 6.72248 6.28767 6.78872 6.25687C6.84736 6.22959 6.90016 6.1912 6.94419 6.14382C6.99391 6.0903 7.02793 6.02138 7.09597 5.88353L9.28265 1.45356Z" fill="#F9B774"/>
</svg>
