<svg width="25" height="30" viewBox="0 0 25 30" fill="none" xmlns="http://www.w3.org/2000/svg">
<path d="M22.6663 15.666V8.06602C22.6663 5.82581 22.6663 4.7057 22.2304 3.85005C21.8469 3.09741 21.2349 2.48548 20.4823 2.10199C19.6267 1.66602 18.5066 1.66602 16.2663 1.66602H7.73301C5.4928 1.66602 4.37269 1.66602 3.51705 2.10199C2.7644 2.48548 2.15248 3.09741 1.76898 3.85005C1.33301 4.7057 1.33301 5.82581 1.33301 8.06602V21.9327C1.33301 24.1729 1.33301 25.293 1.76898 26.1486C2.15248 26.9013 2.7644 27.5132 3.51705 27.8967C4.37269 28.3327 5.49273 28.3327 7.73282 28.3327H12.6663M15.9997 24.3327L19.9997 20.3327M19.9997 20.3327L23.9997 24.3327M19.9997 20.3327V28.3327" stroke="black" stroke-width="2" stroke-linecap="round" stroke-linejoin="round"/>
</svg>
